<svg viewBox="0 0 512 512" xml:space="preserve" xmlns="http://www.w3.org/2000/svg" enable-background="new 0 0 512 512"><path d="M439.622 405.625H83.294v39.165h356.328v-39.165zm-39.166-190.529v183.74h39.166v-183.74h-39.166zM122.46 257.821v-42.726H83.294v183.739h39.166V257.821zm179.861 53.105-38.476 38.255a3.365 3.365 0 0 1-4.775 0l-38.337-38.116c-.896-.801-1.353-2.07-1.049-3.313l11.083-46.701H129.249v137.784h264.418V261.051H292.149l11.083 46.701a3.362 3.362 0 0 1-.911 3.174zm-40.864 31.105 34.751-34.556-11.607-48.909-.013-.055-.027-.083-2.003-8.419h-42.201l-1.958 8.226-.014.083-.014.083-.028.056-.014.082-.014.055-11.606 48.882 34.748 34.555zm7.342-66.435c-1.876-1.877-4.485-3.035-7.342-3.035s-5.464 1.158-7.342 3.035a10.358 10.358 0 0 0-3.036 7.342c0 2.182.664 4.196 1.795 5.853a10.215 10.215 0 0 0 4.803 3.809c1.683.663 2.553 2.566 1.944 4.306l-3.504 9.688h10.681l-3.479-9.604a3.4 3.4 0 0 1 1.918-4.389 10.214 10.214 0 0 0 4.803-3.809 10.332 10.332 0 0 0 1.795-5.853 10.34 10.34 0 0 0-3.036-7.343zm-7.342-9.825c4.748 0 9.04 1.932 12.131 5.024a17.098 17.098 0 0 1 5.038 12.143c0 3.563-1.104 6.9-2.996 9.661-1.311 1.904-2.993 3.561-4.968 4.803l4.142 11.454c.619 1.739-.291 3.698-2.043 4.306-.388.139-.76.194-1.146.194l-20.314.026a3.394 3.394 0 0 1-3.078-4.83l4.03-11.151c-1.974-1.242-3.657-2.898-4.981-4.803a17.164 17.164 0 0 1-2.981-9.661 17.1 17.1 0 0 1 5.036-12.143 17.136 17.136 0 0 1 12.13-5.023zM110.965 423.096a3.008 3.008 0 0 0-2.085-.855c-.828 0-1.574.331-2.097.855a3.013 3.013 0 0 0-.871 2.099c0 .827.332 1.572.871 2.098a2.867 2.867 0 0 0 2.097.882c.8 0 1.546-.33 2.085-.882a2.922 2.922 0 0 0 .868-2.098c0-.802-.332-1.547-.868-2.099zm-2.085-7.646a9.74 9.74 0 0 1 6.888 2.87 9.706 9.706 0 0 1 2.855 6.874 9.768 9.768 0 0 1-2.855 6.899 9.737 9.737 0 0 1-6.888 2.871 9.693 9.693 0 0 1-6.899-2.871 9.705 9.705 0 0 1-2.857-6.899 9.641 9.641 0 0 1 2.857-6.874 9.698 9.698 0 0 1 6.899-2.87zm40.227 7.646a2.947 2.947 0 0 0-2.083-.855c-.829 0-1.574.331-2.099.855a3.02 3.02 0 0 0-.869 2.099c0 .827.332 1.572.869 2.098.524.552 1.27.882 2.099.882.814 0 1.56-.33 2.083-.882a2.917 2.917 0 0 0 .871-2.098 3.01 3.01 0 0 0-.871-2.099zm-2.082-7.646a9.705 9.705 0 0 1 6.885 2.87 9.7 9.7 0 0 1 2.857 6.874 9.762 9.762 0 0 1-2.857 6.899 9.712 9.712 0 0 1-13.785 0 9.763 9.763 0 0 1-2.856-6.899 9.702 9.702 0 0 1 2.856-6.874 9.72 9.72 0 0 1 6.9-2.87zm40.242 7.646a3.012 3.012 0 0 0-2.097-.855c-.814 0-1.56.331-2.099.855-.524.553-.869 1.297-.869 2.099 0 .827.344 1.572.869 2.098a2.923 2.923 0 0 0 2.099.882c.814 0 1.558-.33 2.097-.882a2.966 2.966 0 0 0 .856-2.098c0-.802-.332-1.547-.856-2.099zm-2.098-7.646a9.69 9.69 0 0 1 6.886 2.87 9.641 9.641 0 0 1 2.857 6.874 9.703 9.703 0 0 1-2.857 6.899 9.687 9.687 0 0 1-6.886 2.871 9.743 9.743 0 0 1-6.901-2.871c-1.751-1.767-2.857-4.195-2.857-6.899a9.703 9.703 0 0 1 2.857-6.874 9.752 9.752 0 0 1 6.901-2.87zm40.228 7.646a2.951 2.951 0 0 0-2.083-.855c-.814 0-1.56.331-2.099.855-.525.553-.869 1.297-.869 2.099 0 .827.344 1.572.869 2.098a2.92 2.92 0 0 0 2.099.882c.814 0 1.558-.33 2.083-.882a2.917 2.917 0 0 0 .871-2.098 3.01 3.01 0 0 0-.871-2.099zm-2.083-7.646a9.688 9.688 0 0 1 6.885 2.87 9.7 9.7 0 0 1 2.857 6.874 9.762 9.762 0 0 1-2.857 6.899 9.684 9.684 0 0 1-6.885 2.871 9.741 9.741 0 0 1-6.901-2.871 9.763 9.763 0 0 1-2.857-6.899 9.7 9.7 0 0 1 2.857-6.874 9.752 9.752 0 0 1 6.901-2.87zm40.242 7.646c-.539-.524-1.284-.855-2.099-.855s-1.559.331-2.097.855c-.524.553-.869 1.297-.869 2.099 0 .827.345 1.572.869 2.098.538.552 1.282.882 2.097.882s1.56-.33 2.099-.882a2.965 2.965 0 0 0 .854-2.098c0-.802-.33-1.547-.854-2.099zm-2.099-7.646a9.693 9.693 0 0 1 6.888 2.87 9.64 9.64 0 0 1 2.856 6.874 9.707 9.707 0 0 1-2.856 6.899 9.688 9.688 0 0 1-6.888 2.871 9.742 9.742 0 0 1-6.899-2.871 9.751 9.751 0 0 1-2.843-6.899 9.687 9.687 0 0 1 2.843-6.874 9.75 9.75 0 0 1 6.899-2.87zm40.243 7.646a3.013 3.013 0 0 0-2.099-.855c-.813 0-1.558.331-2.097.855a3.065 3.065 0 0 0-.856 2.099c0 .827.332 1.572.856 2.098a2.918 2.918 0 0 0 2.097.882 2.92 2.92 0 0 0 2.099-.882 2.973 2.973 0 0 0 .869-2.098c0-.802-.343-1.547-.869-2.099zm-2.098-7.646a9.745 9.745 0 0 1 6.901 2.87 9.703 9.703 0 0 1 2.857 6.874 9.766 9.766 0 0 1-2.857 6.899 9.743 9.743 0 0 1-6.901 2.871 9.688 9.688 0 0 1-6.886-2.871 9.704 9.704 0 0 1-2.856-6.899 9.644 9.644 0 0 1 2.856-6.874 9.694 9.694 0 0 1 6.886-2.87zm40.244 7.646a2.966 2.966 0 0 0-2.099-.855c-.814 0-1.56.331-2.097.855a3.062 3.062 0 0 0-.857 2.099c0 .827.332 1.572.857 2.098a2.913 2.913 0 0 0 2.097.882c.828 0 1.573-.33 2.099-.882a2.922 2.922 0 0 0 .868-2.098c0-.802-.331-1.547-.868-2.099zm-2.099-7.646a9.74 9.74 0 0 1 6.899 2.87 9.7 9.7 0 0 1 2.857 6.874 9.762 9.762 0 0 1-2.857 6.899 9.738 9.738 0 0 1-6.899 2.871 9.687 9.687 0 0 1-6.886-2.871 9.7 9.7 0 0 1-2.857-6.899 9.641 9.641 0 0 1 2.857-6.874 9.694 9.694 0 0 1 6.886-2.87zm40.241 7.646a3.008 3.008 0 0 0-2.097-.855c-.814 0-1.56.331-2.085.855a3.019 3.019 0 0 0-.868 2.099c0 .827.331 1.572.868 2.098a2.867 2.867 0 0 0 2.085.882c.813 0 1.56-.33 2.097-.882a2.917 2.917 0 0 0 .871-2.098 3.01 3.01 0 0 0-.871-2.099zm-2.096-7.646a9.717 9.717 0 0 1 6.899 2.87 9.695 9.695 0 0 1 2.857 6.874 9.762 9.762 0 0 1-2.857 6.899 9.715 9.715 0 0 1-6.899 2.871 9.681 9.681 0 0 1-6.886-2.871 9.763 9.763 0 0 1-2.856-6.899 9.702 9.702 0 0 1 2.856-6.874 9.687 9.687 0 0 1 6.886-2.87zm40.241 7.646a2.95 2.95 0 0 0-2.082-.855c-.814 0-1.561.331-2.1.855a3.023 3.023 0 0 0-.868 2.099c0 .827.332 1.572.868 2.098a2.923 2.923 0 0 0 2.1.882 2.86 2.86 0 0 0 2.082-.882 2.917 2.917 0 0 0 .871-2.098 3.01 3.01 0 0 0-.871-2.099zm-2.082-7.646a9.71 9.71 0 0 1 6.885 2.87 9.695 9.695 0 0 1 2.857 6.874 9.762 9.762 0 0 1-2.857 6.899c-1.765 1.767-4.195 2.871-6.885 2.871a9.722 9.722 0 0 1-6.902-2.871c-1.751-1.767-2.856-4.195-2.856-6.899a9.707 9.707 0 0 1 2.856-6.874 9.726 9.726 0 0 1 6.902-2.87zM104.974 232.76c.524-.524.87-1.27.87-2.098 0-.8-.346-1.546-.87-2.069a2.912 2.912 0 0 0-2.097-.884 2.86 2.86 0 0 0-2.084.884 2.913 2.913 0 0 0-.883 2.069c0 .828.346 1.573.883 2.098a2.862 2.862 0 0 0 2.084.883c.814 0 1.56-.33 2.097-.883zm7.659-2.098a9.667 9.667 0 0 1-2.871 6.9c-1.751 1.767-4.194 2.87-6.886 2.87s-5.134-1.104-6.887-2.87c-1.766-1.738-2.855-4.195-2.855-6.9a9.69 9.69 0 0 1 2.855-6.872c1.753-1.767 4.195-2.871 6.887-2.871s5.134 1.104 6.886 2.871c1.768 1.767 2.871 4.194 2.871 6.872zm-7.659 40.242c.524-.523.87-1.27.87-2.07 0-.828-.346-1.572-.87-2.098a2.915 2.915 0 0 0-2.097-.883c-.814 0-1.56.331-2.084.883a2.933 2.933 0 0 0-.883 2.098c0 .801.346 1.547.883 2.07a2.862 2.862 0 0 0 2.084.883c.814 0 1.56-.33 2.097-.883zm7.659-2.07a9.653 9.653 0 0 1-2.871 6.873c-1.751 1.767-4.194 2.871-6.886 2.871s-5.134-1.104-6.887-2.871a9.643 9.643 0 0 1-2.855-6.873 9.708 9.708 0 0 1 2.855-6.9c1.753-1.766 4.195-2.869 6.887-2.869s5.134 1.104 6.886 2.869a9.714 9.714 0 0 1 2.871 6.9zm-7.659 40.215a2.96 2.96 0 0 0 .87-2.07c0-.828-.346-1.572-.87-2.098-.537-.524-1.283-.883-2.097-.883-.814 0-1.56.358-2.084.883a2.933 2.933 0 0 0-.883 2.098c0 .801.346 1.545.883 2.098a2.955 2.955 0 0 0 2.084.855c.814 0 1.56-.331 2.097-.883zm7.659-2.07a9.653 9.653 0 0 1-2.871 6.873c-1.751 1.766-4.194 2.871-6.886 2.871s-5.134-1.105-6.887-2.871a9.643 9.643 0 0 1-2.855-6.873 9.706 9.706 0 0 1 2.855-6.9c1.753-1.766 4.195-2.871 6.887-2.871s5.134 1.105 6.886 2.871a9.71 9.71 0 0 1 2.871 6.9zm-7.659 40.242c.524-.552.87-1.297.87-2.098 0-.828-.346-1.573-.87-2.098-.537-.523-1.283-.883-2.097-.883-.814 0-1.56.359-2.084.883a2.931 2.931 0 0 0-.883 2.098c0 .801.346 1.546.883 2.098a2.956 2.956 0 0 0 2.084.856c.814 0 1.56-.332 2.097-.856zm7.659-2.098a9.65 9.65 0 0 1-2.871 6.873c-1.751 1.766-4.194 2.87-6.886 2.87s-5.134-1.104-6.887-2.87a9.641 9.641 0 0 1-2.855-6.873 9.708 9.708 0 0 1 2.855-6.9c1.753-1.767 4.195-2.842 6.887-2.842s5.134 1.075 6.886 2.842a9.714 9.714 0 0 1 2.871 6.9zm-7.659 40.242c.524-.552.87-1.297.87-2.098 0-.828-.346-1.573-.87-2.098a3.012 3.012 0 0 0-2.097-.855c-.814 0-1.56.332-2.084.855a2.931 2.931 0 0 0-.883 2.098c0 .801.346 1.546.883 2.098a2.951 2.951 0 0 0 2.084.855 2.995 2.995 0 0 0 2.097-.855zm7.659-2.097a9.764 9.764 0 0 1-2.871 6.9c-1.751 1.739-4.194 2.843-6.886 2.843s-5.134-1.104-6.887-2.843a9.757 9.757 0 0 1-2.855-6.9 9.704 9.704 0 0 1 2.855-6.899c1.753-1.767 4.195-2.844 6.887-2.844s5.134 1.077 6.886 2.844a9.71 9.71 0 0 1 2.871 6.899zM422.137 232.76c.524-.524.87-1.27.87-2.098 0-.8-.346-1.546-.87-2.069a2.913 2.913 0 0 0-2.098-.884c-.813 0-1.56.331-2.097.884a2.894 2.894 0 0 0-.87 2.069c0 .828.331 1.573.87 2.098a2.911 2.911 0 0 0 2.097.883c.815 0 1.561-.33 2.098-.883zm7.644-2.098c0 2.705-1.089 5.162-2.856 6.9a9.677 9.677 0 0 1-6.886 2.87 9.74 9.74 0 0 1-6.899-2.87 9.712 9.712 0 0 1-2.856-6.9c0-2.678 1.104-5.105 2.856-6.872a9.738 9.738 0 0 1 6.899-2.871 9.68 9.68 0 0 1 6.886 2.871 9.686 9.686 0 0 1 2.856 6.872zm-7.644 40.242c.524-.523.87-1.27.87-2.07 0-.828-.346-1.572-.87-2.098a2.916 2.916 0 0 0-2.098-.883c-.813 0-1.56.331-2.097.883a2.914 2.914 0 0 0-.87 2.098c0 .801.331 1.547.87 2.07a2.911 2.911 0 0 0 2.097.883c.815 0 1.561-.33 2.098-.883zm7.644-2.07a9.64 9.64 0 0 1-2.856 6.873 9.678 9.678 0 0 1-6.886 2.871 9.737 9.737 0 0 1-6.899-2.871 9.698 9.698 0 0 1-2.856-6.873 9.767 9.767 0 0 1 2.856-6.9 9.74 9.74 0 0 1 6.899-2.869 9.686 9.686 0 0 1 6.886 2.869 9.705 9.705 0 0 1 2.856 6.9zm-7.644 40.215a2.96 2.96 0 0 0 .87-2.07c0-.828-.346-1.572-.87-2.098-.537-.524-1.283-.883-2.098-.883-.813 0-1.56.358-2.097.883a2.914 2.914 0 0 0-.87 2.098c0 .801.331 1.545.87 2.07a2.915 2.915 0 0 0 2.097.883c.815 0 1.561-.331 2.098-.883zm7.644-2.07a9.64 9.64 0 0 1-2.856 6.873 9.682 9.682 0 0 1-6.886 2.871 9.74 9.74 0 0 1-6.899-2.871 9.698 9.698 0 0 1-2.856-6.873 9.766 9.766 0 0 1 2.856-6.9 9.742 9.742 0 0 1 6.899-2.871 9.684 9.684 0 0 1 6.886 2.871 9.701 9.701 0 0 1 2.856 6.9zm-7.644 40.242c.524-.552.87-1.297.87-2.098 0-.828-.346-1.573-.87-2.098-.537-.523-1.283-.883-2.098-.883-.813 0-1.56.359-2.097.883a2.913 2.913 0 0 0-.87 2.098c0 .801.331 1.546.87 2.098a3.009 3.009 0 0 0 2.097.856 3.01 3.01 0 0 0 2.098-.856zm7.644-2.098a9.638 9.638 0 0 1-2.856 6.873 9.681 9.681 0 0 1-6.886 2.87 9.74 9.74 0 0 1-6.899-2.87 9.696 9.696 0 0 1-2.856-6.873 9.767 9.767 0 0 1 2.856-6.9 9.713 9.713 0 0 1 6.899-2.842c2.692 0 5.135 1.075 6.886 2.842a9.705 9.705 0 0 1 2.856 6.9zm-7.644 40.242c.524-.552.87-1.297.87-2.098 0-.828-.346-1.573-.87-2.098a3.013 3.013 0 0 0-2.098-.855c-.813 0-1.56.332-2.097.855a2.913 2.913 0 0 0-.87 2.098c0 .801.331 1.546.87 2.098a3.004 3.004 0 0 0 4.195 0zm7.644-2.097a9.75 9.75 0 0 1-2.856 6.9 9.77 9.77 0 0 1-6.886 2.843 9.83 9.83 0 0 1-6.899-2.843 9.813 9.813 0 0 1-2.856-6.9 9.763 9.763 0 0 1 2.856-6.899 9.715 9.715 0 0 1 6.899-2.844 9.656 9.656 0 0 1 6.886 2.844 9.7 9.7 0 0 1 2.856 6.899zM149.107 232.594a2.971 2.971 0 0 0-2.083-.883c-.829 0-1.574.358-2.099.883a2.922 2.922 0 0 0-.869 2.098c0 .801.332 1.547.869 2.099.524.523 1.27.855 2.099.855.814 0 1.56-.332 2.083-.855a3.013 3.013 0 0 0 .871-2.099c0-.829-.332-1.573-.871-2.098zm-2.082-7.672a9.708 9.708 0 0 1 6.885 2.869c1.753 1.768 2.857 4.196 2.857 6.9a9.697 9.697 0 0 1-2.857 6.873 9.708 9.708 0 0 1-13.785 0 9.696 9.696 0 0 1-2.856-6.873 9.77 9.77 0 0 1 2.856-6.9 9.715 9.715 0 0 1 6.9-2.869zm40.242 7.672c-.539-.524-1.283-.883-2.097-.883-.814 0-1.56.358-2.099.883a2.975 2.975 0 0 0-.869 2.098c0 .801.344 1.547.869 2.099a3.02 3.02 0 0 0 2.099.855c.814 0 1.558-.332 2.097-.855a3.065 3.065 0 0 0 .856-2.099c0-.829-.332-1.573-.856-2.098zm-2.098-7.672a9.693 9.693 0 0 1 6.886 2.869 9.71 9.71 0 0 1 2.857 6.9 9.639 9.639 0 0 1-2.857 6.873 9.69 9.69 0 0 1-6.886 2.871 9.747 9.747 0 0 1-6.901-2.871 9.705 9.705 0 0 1-2.857-6.873c0-2.704 1.105-5.133 2.857-6.9a9.747 9.747 0 0 1 6.901-2.869zm40.242 7.672c-.539-.524-1.283-.883-2.097-.883-.814 0-1.56.358-2.099.883a2.971 2.971 0 0 0-.869 2.098c0 .801.344 1.547.869 2.099a3.019 3.019 0 0 0 2.099.855c.814 0 1.558-.332 2.083-.855a3.013 3.013 0 0 0 .871-2.099 2.96 2.96 0 0 0-.857-2.098zm-2.097-7.672a9.748 9.748 0 0 1 9.742 9.769 9.697 9.697 0 0 1-2.857 6.873 9.688 9.688 0 0 1-6.885 2.871 9.745 9.745 0 0 1-6.901-2.871 9.697 9.697 0 0 1-2.857-6.873 9.766 9.766 0 0 1 2.857-6.9 9.747 9.747 0 0 1 6.901-2.869zm40.242 7.672c-.539-.524-1.284-.883-2.099-.883s-1.559.358-2.097.883a2.975 2.975 0 0 0-.869 2.098c0 .801.345 1.547.869 2.099.538.523 1.282.855 2.097.855s1.56-.332 2.099-.855a3.064 3.064 0 0 0 .854-2.099c0-.829-.33-1.573-.854-2.098zm-2.099-7.672a9.75 9.75 0 0 1 9.744 9.769 9.642 9.642 0 0 1-2.856 6.873 9.12 9.12 0 0 1-2.182 1.656h19.376l.057.027h.136l.042.027h.097l.207.055.068.029h.07c.137.055.262.082.386.165h.028l.219.11.043.027h.027l.041.027.014.028c.152.083.275.165.4.275l.056.028.055.055.193.193h.014l.042.055h.014l.026.056h.015l.082.11h.015l.069.109h.013l.028.056.014.028.028.027.026.027.014.027.015.028.027.027.028.056.026.027.014.055.015.028.028.026.014.029.014.027.026.027v.055l.028.027.014.029.015.026.014.027.015.056.012.027.015.027.014.028.014.056v.027l.083.192.014.056v.027l.014.056v.027l.041.165v.027l1.96 8.227H393.67v-39.166H129.25v39.166h103.132l1.958-8.227v-.027l.042-.165v-.027l.014-.056v-.027l.014-.056.068-.192.014-.027.014-.056.083-.192.014-.029.028-.027v-.055l.026-.027.014-.027.014-.029.014-.026.028-.028.014-.055.026-.027.028-.056.028-.027.026-.056.028-.027.014-.056h.014l.028-.056h.026l.07-.109h.014l.083-.11.096-.11.207-.193.055-.055a3.25 3.25 0 0 1 1.214-.662l.346-.084h.097l.042-.027h.026c.153-.027.318-.027.471-.027h19.072a9.434 9.434 0 0 1-2.195-1.656 9.685 9.685 0 0 1-2.843-6.873 9.754 9.754 0 0 1 2.843-6.9 9.762 9.762 0 0 1 6.9-2.865zm40.243 7.672c-.538-.524-1.284-.883-2.099-.883-.813 0-1.558.358-2.097.883a2.965 2.965 0 0 0-.856 2.098c0 .801.332 1.547.856 2.099a3.016 3.016 0 0 0 2.097.855c.814 0 1.561-.332 2.099-.855.525-.552.869-1.298.869-2.099 0-.829-.343-1.573-.869-2.098zm-2.098-7.672a9.748 9.748 0 0 1 6.901 2.869c1.752 1.768 2.857 4.196 2.857 6.9a9.7 9.7 0 0 1-2.857 6.873 9.747 9.747 0 0 1-6.901 2.871 9.693 9.693 0 0 1-6.886-2.871 9.638 9.638 0 0 1-2.856-6.873 9.71 9.71 0 0 1 2.856-6.9 9.689 9.689 0 0 1 6.886-2.869zm40.244 7.672a2.99 2.99 0 0 0-2.099-.883c-.814 0-1.56.358-2.097.883a2.961 2.961 0 0 0-.857 2.098c0 .801.332 1.547.857 2.099a3.01 3.01 0 0 0 2.097.855c.828 0 1.573-.332 2.099-.855a3.019 3.019 0 0 0 .868-2.099c0-.829-.331-1.573-.868-2.098zm-2.099-7.672a9.743 9.743 0 0 1 6.899 2.869c1.753 1.768 2.857 4.196 2.857 6.9a9.697 9.697 0 0 1-2.857 6.873 9.742 9.742 0 0 1-6.899 2.871 9.69 9.69 0 0 1-6.886-2.871 9.635 9.635 0 0 1-2.857-6.873 9.707 9.707 0 0 1 2.857-6.9 9.689 9.689 0 0 1 6.886-2.869zm40.241 7.672a2.98 2.98 0 0 0-2.097-.883c-.814 0-1.56.358-2.085.883a2.92 2.92 0 0 0-.868 2.098c0 .801.331 1.547.868 2.099a2.962 2.962 0 0 0 2.085.855c.813 0 1.56-.332 2.097-.855a3.013 3.013 0 0 0 .871-2.099c0-.829-.332-1.573-.871-2.098zm-2.096-7.672a9.696 9.696 0 0 1 6.899 2.869 9.705 9.705 0 0 1 2.857 6.9 9.697 9.697 0 0 1-2.857 6.873 9.72 9.72 0 0 1-6.899 2.871 9.685 9.685 0 0 1-6.886-2.871 9.696 9.696 0 0 1-2.856-6.873 9.77 9.77 0 0 1 2.856-6.9 9.682 9.682 0 0 1 6.886-2.869zm63.26-174.936V37.98c0-3.285-1.352-6.294-3.519-8.475-2.181-2.152-5.188-3.504-8.487-3.504H280.943l5.688 23.984h152.521zm-202.867 0 5.688-23.984H95.77c-3.313 0-6.306 1.352-8.487 3.504-2.167 2.181-3.52 5.189-3.52 8.475v12.006h152.522zm51.96 6.79 1.09 4.609a3.361 3.361 0 0 1-.911 3.174l-24.578 24.455c-1.312 1.296-3.45 1.296-4.775 0l-24.454-24.317a3.38 3.38 0 0 1-1.035-3.312l1.089-4.609H84.826l28.236 73.749h296.793l28.236-73.749H288.245zm-14.269-30.774H248.94l-6.638 27.959-.014.055-.013.028v.027l-.014.056-.014.055-.014.055v.027l-.014.056-.014.028v.027l-1.601 6.734 20.852 20.729 20.854-20.729-1.614-6.79-.015-.083-.014-.082-.028-.083-6.663-28.069zM165.42 208.305h187.839a27.024 27.024 0 0 0 5.106-7.894c1.353-3.201 2.097-6.762 2.097-10.515a26.93 26.93 0 0 0-7.935-19.129 26.922 26.922 0 0 0-19.155-7.948c-2.4 0-4.732.304-6.913.882a26.58 26.58 0 0 0-6.307 2.568l-.18.083a3.38 3.38 0 0 1-4.583-1.38 30.955 30.955 0 0 0-11.289-11.786c-4.553-2.733-9.921-4.306-15.648-4.306a30.589 30.589 0 0 0-14.698 3.754 30.733 30.733 0 0 0-11.013 10.24c-.663 1.214-2.057 1.959-3.506 1.711l-2.263-.275-2.304-.084c-1.021 0-1.986.027-2.885.138-.937.083-1.89.249-2.843.442-1.449.303-2.981-.359-3.697-1.739-2.292-4.389-5.77-8.06-10.005-10.626-4.071-2.484-8.86-3.892-14.008-3.892a27.035 27.035 0 0 0-16.463 5.548c-4.652 3.588-8.13 8.639-9.688 14.463a3.395 3.395 0 0 1-3.713 2.483l-1.711-.165-1.685-.055a25.415 25.415 0 0 0-17.858 7.286l-.179.192a25.445 25.445 0 0 0-7.479 18.052c0 2.456.344 4.829.993 7.065a23.692 23.692 0 0 0 1.973 4.887zM86.358 466.981c-1.878 0-3.396-1.546-3.396-3.396a3.393 3.393 0 0 1 3.396-3.395h268.736a3.402 3.402 0 0 1 3.396 3.395c0 1.85-1.532 3.396-3.396 3.396H86.358zm157.353 19.018c-1.863 0-3.381-1.546-3.381-3.396a3.39 3.39 0 0 1 3.381-3.395h185.974a3.402 3.402 0 0 1 3.396 3.395c0 1.85-1.532 3.396-3.396 3.396H243.711zm133.147-19.018c-1.878 0-3.396-1.546-3.396-3.396a3.393 3.393 0 0 1 3.396-3.395h23.253a3.39 3.39 0 0 1 3.381 3.395c0 1.85-1.518 3.396-3.381 3.396h-23.253zM75.759 485.419a3.39 3.39 0 0 1-3.381-3.395 3.39 3.39 0 0 1 3.381-3.396h88.128a3.402 3.402 0 0 1 3.396 3.396 3.402 3.402 0 0 1-3.396 3.395H75.759zm9.121-277.114h73.089a27.579 27.579 0 0 1-1.036-3.035 32.453 32.453 0 0 1-1.27-8.915c0-8.915 3.63-17.003 9.467-22.854l.221-.192c5.824-5.714 13.815-9.274 22.619-9.274l1.421.056c2.223-6.155 6.184-11.454 11.276-15.374a33.735 33.735 0 0 1 20.562-6.955 33.8 33.8 0 0 1 17.499 4.885 33.726 33.726 0 0 1 11.248 11.123l1.104-.137a31.893 31.893 0 0 1 3.588-.194c.925 0 1.878.028 2.856.11l.649.084a37.55 37.55 0 0 1 12.31-10.931 37.284 37.284 0 0 1 17.969-4.581c6.968 0 13.523 1.904 19.127 5.271a37.343 37.343 0 0 1 12.076 11.565c1.643-.746 3.339-1.324 5.078-1.794 2.786-.718 5.686-1.132 8.639-1.132 9.343 0 17.815 3.809 23.944 9.936 6.141 6.129 9.937 14.602 9.937 23.932 0 4.637-.952 9.08-2.663 13.137a34.242 34.242 0 0 1-2.803 5.271H438.022l-28.14-70.988H113.02l-28.14 70.986z" fill-rule="evenodd" clip-rule="evenodd" fill="#ffffff" class="fill-000000"></path></svg>