<svg width="1261" height="1890" viewBox="0 0 1261 1890" fill="none" xmlns="http://www.w3.org/2000/svg">
<path d="M1050.17 1.12109H211.523C95.7307 1.12109 1.8623 94.9891 1.8623 210.781V1678.4C1.8623 1794.19 95.7307 1888.06 211.523 1888.06H1050.17C1165.96 1888.06 1259.83 1794.19 1259.83 1678.4V210.781C1259.83 94.9891 1165.96 1.12109 1050.17 1.12109Z" fill="white" stroke="black" stroke-width="2"/>
<path d="M1050.17 105.951H211.523C153.627 105.951 106.692 152.885 106.692 210.781V1678.4C106.692 1736.3 153.627 1783.23 211.523 1783.23H1050.17C1108.06 1783.23 1155 1736.3 1155 1678.4V210.781C1155 152.885 1108.06 105.951 1050.17 105.951Z" fill="#55AA55"/>
<path fill-rule="evenodd" clip-rule="evenodd" d="M945.336 420.441C482.166 420.441 106.692 795.913 106.692 1259.08C106.692 1374.87 200.561 1468.74 316.353 1468.74C779.523 1468.74 1155 1093.27 1155 630.101C1155 514.309 1061.13 420.441 945.336 420.441Z" fill="white"/>
<path d="M630.844 603.895L683.259 656.31L473.599 865.969C421.183 918.384 421.183 1023.21 473.599 1075.63L578.429 970.799L788.09 761.139L840.505 813.554V603.895H630.844Z" fill="#55AA55"/>
<path d="M630.845 1285.29L578.429 1232.87L788.09 1023.21C840.505 970.798 840.505 865.968 788.09 813.553L683.26 918.383L473.599 1128.04L421.184 1075.63V1285.29H630.845Z" fill="#55AA55"/>
<path d="M263.938 158.365L290.145 184.573L185.315 289.403C159.107 315.61 159.107 368.025 185.315 394.233L237.73 341.818L342.561 236.988L368.768 263.195V158.365H263.938Z" fill="white"/>
<path d="M263.938 499.063L237.73 472.855L342.561 368.025C368.768 341.818 368.768 289.403 342.561 263.195L290.146 315.61L185.315 420.44L159.107 394.233V499.063H263.938Z" fill="white"/>
<path d="M997.751 1390.12L1023.96 1416.32L919.128 1521.15C892.921 1547.36 892.921 1599.78 919.128 1625.98L971.544 1573.57L1076.37 1468.74L1102.58 1494.95V1390.12H997.751Z" fill="white"/>
<path d="M997.751 1730.81L971.544 1704.61L1076.37 1599.78C1102.58 1573.57 1102.58 1521.15 1076.37 1494.95L1023.96 1547.36L919.129 1652.19L892.921 1625.98V1730.81H997.751Z" fill="white"/>
</svg>
