<svg width="1261" height="1890" viewBox="0 0 1261 1890" fill="none" xmlns="http://www.w3.org/2000/svg">
<path d="M1049.55 1.18164H210.902C95.1099 1.18164 1.24152 95.0496 1.24152 210.842V1678.46C1.24152 1794.25 95.1099 1888.12 210.902 1888.12H1049.55C1165.34 1888.12 1259.21 1794.25 1259.21 1678.46V210.842C1259.21 95.0496 1165.34 1.18164 1049.55 1.18164Z" fill="white" stroke="black" stroke-width="2"/>
<path d="M1049.55 106.012H210.902C153.006 106.012 106.072 152.946 106.072 210.842V1678.46C106.072 1736.36 153.006 1783.29 210.902 1783.29H1049.55C1107.44 1783.29 1154.38 1736.36 1154.38 1678.46V210.842C1154.38 152.946 1107.44 106.012 1049.55 106.012Z" fill="#FFAA00"/>
<path fill-rule="evenodd" clip-rule="evenodd" d="M944.716 420.5C481.545 420.5 106.072 795.972 106.072 1259.14C106.072 1374.93 199.94 1468.8 315.733 1468.8C778.903 1468.8 1154.38 1093.33 1154.38 630.16C1154.38 514.368 1060.51 420.5 944.716 420.5Z" fill="white"/>
<path fill-rule="evenodd" clip-rule="evenodd" d="M630.224 630.162C514.432 630.162 420.563 724.03 420.563 839.822V1049.48C420.563 1165.27 514.432 1259.14 630.224 1259.14C746.017 1259.14 839.885 1165.27 839.885 1049.48V839.822C839.885 724.03 746.017 630.162 630.224 630.162ZM630.224 734.992C688.12 734.992 735.055 781.926 735.055 839.822V1049.48C735.055 1107.38 688.12 1154.31 630.224 1154.31C572.328 1154.31 525.394 1107.38 525.394 1049.48V839.822C525.394 781.926 572.328 734.992 630.224 734.992Z" fill="#FFAA00"/>
<path fill-rule="evenodd" clip-rule="evenodd" d="M263.318 158.426C205.421 158.426 158.487 205.36 158.487 263.256V368.086C158.487 425.982 205.421 472.916 263.318 472.916C321.214 472.916 368.148 425.982 368.148 368.086V263.256C368.148 205.36 321.214 158.426 263.318 158.426ZM263.318 210.841C292.266 210.841 315.733 234.308 315.733 263.256V368.086C315.733 397.034 292.266 420.501 263.318 420.501C234.37 420.501 210.902 397.034 210.902 368.086V263.256C210.902 234.308 234.37 210.841 263.318 210.841Z" fill="white"/>
<path fill-rule="evenodd" clip-rule="evenodd" d="M997.131 1416.39C939.234 1416.39 892.3 1463.32 892.3 1521.22V1626.05C892.3 1683.94 939.234 1730.88 997.131 1730.88C1055.03 1730.88 1101.96 1683.94 1101.96 1626.05V1521.22C1101.96 1463.32 1055.03 1416.39 997.131 1416.39ZM997.131 1468.8C1026.08 1468.8 1049.55 1492.27 1049.55 1521.22V1626.05C1049.55 1654.99 1026.08 1678.46 997.131 1678.46C968.183 1678.46 944.716 1654.99 944.716 1626.05V1521.22C944.716 1492.27 968.183 1468.8 997.131 1468.8Z" fill="white"/>
</svg>
